<svg xmlns="http://www.w3.org/2000/svg" viewBox="0 0 64 64"><title>Artboard-38</title><g id="Cabinet_Download" data-name="Cabinet Download"><path d="M13,53v4a1,1,0,0,0,1,1H50a1,1,0,0,0,1-1V53a1,1,0,0,0-1-1H14A1,1,0,0,0,13,53Zm2,1H49v2H15Z" style="fill:#28282b"/><path d="M63.948,43.684l-6-18A1,1,0,0,0,57,25H40a1,1,0,0,0,0,2H56.279l5.334,16H46a1,1,0,0,0-.707.293L41.586,47H22.414l-3.707-3.707A1,1,0,0,0,18,43H2.388L7.721,27H24a1,1,0,0,0,0-2H7a1,1,0,0,0-.949.684l-6,18L0,44V62a1,1,0,0,0,1,1H63a1,1,0,0,0,1-1V44ZM62,61H2V45H17.586l3.707,3.707A1,1,0,0,0,22,49H42a1,1,0,0,0,.707-.293L46.414,45H62Z" style="fill:#28282b"/><path d="M21.076,31.617a1,1,0,0,0,.217,1.09l10,10a1,1,0,0,0,1.414,0l10-10A1,1,0,0,0,42,31H37V15a1,1,0,0,0-2,0V32a1,1,0,0,0,1,1h3.586L32,40.586,24.414,33H28a1,1,0,0,0,1-1V15a1,1,0,0,0-2,0V31H22A1,1,0,0,0,21.076,31.617Z" style="fill:#28282b"/><path d="M36,12a1,1,0,0,0,1-1V6a1,1,0,0,0-2,0v5A1,1,0,0,0,36,12Z" style="fill:#28282b"/><path d="M32,12a1,1,0,0,0,1-1V2a1,1,0,0,0-2,0v9A1,1,0,0,0,32,12Z" style="fill:#28282b"/><path d="M28,12a1,1,0,0,0,1-1V6a1,1,0,0,0-2,0v5A1,1,0,0,0,28,12Z" style="fill:#28282b"/></g></svg>