<?xml version="1.0" encoding="UTF-8" standalone="no" ?>
<!DOCTYPE svg PUBLIC "-//W3C//DTD SVG 1.1//EN" "http://www.w3.org/Graphics/SVG/1.1/DTD/svg11.dtd">
<svg xmlns="http://www.w3.org/2000/svg" xmlns:xlink="http://www.w3.org/1999/xlink" version="1.1" width="1080" height="1080" viewBox="0 0 1080 1080" xml:space="preserve">
<desc>Created with Fabric.js 5.2.4</desc>
<defs>
</defs>
<rect x="0" y="0" width="100%" height="100%" fill="transparent"></rect>
<g transform="matrix(1 0 0 1 540 540)" id="2e2539ed-da84-4b4e-b12b-266e4cc47580"  >
<rect style="stroke: none; stroke-width: 1; stroke-dasharray: none; stroke-linecap: butt; stroke-dashoffset: 0; stroke-linejoin: miter; stroke-miterlimit: 4; fill: rgb(255,255,255); fill-rule: nonzero; opacity: 1; visibility: hidden;" vector-effect="non-scaling-stroke"  x="-540" y="-540" rx="0" ry="0" width="1080" height="1080" />
</g>
<g transform="matrix(1 0 0 1 540 540)" id="14965c9c-9060-47d9-a159-5495196618e9"  >
</g>
<g transform="matrix(18 0 0 18 540 540)"  >
<g style="" vector-effect="non-scaling-stroke"   >
		<g transform="matrix(1 0 0 1 0 3.68)"  >
<path style="stroke: none; stroke-width: 1; stroke-dasharray: none; stroke-linecap: butt; stroke-dashoffset: 0; stroke-linejoin: miter; stroke-miterlimit: 4; fill: rgb(0,0,0); fill-rule: nonzero; opacity: 1;" vector-effect="non-scaling-stroke"  transform=" translate(-49.14, -53.74)" d="M 69.757812 29.800781 C 68.238281 28.21875 65.984375 27.582031 63.863281 28.136719 C 61.742188 28.6875 60.085938 30.34375 59.53125 32.464844 C 58.980469 34.585938 59.613281 36.839844 61.195312 38.359375 C 67.847656 45.011719 67.847656 55.800781 61.195312 62.457031 C 54.539062 69.109375 43.75 69.109375 37.097656 62.457031 C 30.445312 55.800781 30.445312 45.011719 37.097656 38.359375 C 38.664062 36.835938 39.292969 34.589844 38.738281 32.476562 C 38.179688 30.363281 36.53125 28.714844 34.417969 28.160156 C 32.304688 27.605469 30.058594 28.230469 28.535156 29.800781 C 20.195312 38.132812 17.699219 50.667969 22.210938 61.558594 C 26.722656 72.449219 37.351562 79.550781 49.140625 79.542969 C 60.925781 79.542969 71.550781 72.445312 76.0625 61.558594 C 80.574219 50.671875 78.085938 38.136719 69.757812 29.800781 Z M 67.824219 69.085938 C 62.878906 74.050781 56.152344 76.832031 49.144531 76.808594 C 38.46875 76.804688 28.84375 70.375 24.753906 60.507812 C 20.667969 50.644531 22.921875 39.289062 30.46875 31.734375 C 31.765625 30.4375 33.867188 30.4375 35.164062 31.734375 C 36.460938 33.03125 36.460938 35.132812 35.164062 36.429688 C 27.441406 44.148438 27.441406 56.667969 35.164062 64.390625 C 42.886719 72.113281 55.40625 72.113281 63.125 64.390625 C 70.847656 56.667969 70.847656 44.148438 63.125 36.429688 C 61.828125 35.132812 61.828125 33.03125 63.125 31.734375 C 64.421875 30.4375 66.523438 30.4375 67.820312 31.734375 C 78.121094 42.054688 78.121094 58.765625 67.820312 69.085938 Z M 67.824219 69.085938" stroke-linecap="round" />
</g>
		<g transform="matrix(1 0 0 1 0.01 -13.74)"  >
<path style="stroke: none; stroke-width: 1; stroke-dasharray: none; stroke-linecap: butt; stroke-dashoffset: 0; stroke-linejoin: miter; stroke-miterlimit: 4; fill: rgb(0,0,0); fill-rule: nonzero; opacity: 1;" vector-effect="non-scaling-stroke"  transform=" translate(-49.14, -36.33)" d="M 49.144531 52.070312 C 45.804688 52.066406 43.09375 49.355469 43.089844 46.015625 L 43.089844 26.640625 C 43.089844 23.296875 45.800781 20.585938 49.144531 20.585938 C 52.488281 20.585938 55.199219 23.296875 55.199219 26.640625 L 55.199219 46.015625 C 55.195312 49.359375 52.488281 52.066406 49.144531 52.070312 Z M 49.144531 23.320312 C 47.3125 23.320312 45.828125 24.804688 45.824219 26.640625 L 45.824219 46.015625 C 45.824219 47.847656 47.3125 49.335938 49.144531 49.335938 C 50.980469 49.335938 52.464844 47.847656 52.464844 46.015625 L 52.464844 26.640625 C 52.464844 24.804688 50.980469 23.320312 49.144531 23.316406 Z M 49.144531 23.320312" stroke-linecap="round" />
</g>
</g>
</g>
</svg>