<?xml version="1.0" encoding="UTF-8" standalone="no" ?>
<!DOCTYPE svg PUBLIC "-//W3C//DTD SVG 1.1//EN" "http://www.w3.org/Graphics/SVG/1.1/DTD/svg11.dtd">
<svg xmlns="http://www.w3.org/2000/svg" xmlns:xlink="http://www.w3.org/1999/xlink" version="1.1" width="1080" height="1080" viewBox="0 0 1080 1080" xml:space="preserve">
<desc>Created with Fabric.js 5.2.4</desc>
<defs>
</defs>
<g transform="matrix(1 0 0 1 540 540)" id="2e2539ed-da84-4b4e-b12b-266e4cc47580"  >
<rect style="stroke: none; stroke-width: 1; stroke-dasharray: none; stroke-linecap: butt; stroke-dashoffset: 0; stroke-linejoin: miter; stroke-miterlimit: 4; fill: rgb(255,255,255); fill-rule: nonzero; opacity: 1; visibility: hidden;" vector-effect="non-scaling-stroke"  x="-540" y="-540" rx="0" ry="0" width="1080" height="1080" />
</g>
<g transform="matrix(1 0 0 1 540 540)" id="14965c9c-9060-47d9-a159-5495196618e9"  >
</g>
<g transform="matrix(12.17 0 0 13.03 540 548.01)" id="1112c40e-0dcd-4600-82cb-c85d7755603c"  >
<path style="stroke: rgb(0,0,0); stroke-width: 0; stroke-dasharray: none; stroke-linecap: butt; stroke-dashoffset: 0; stroke-linejoin: miter; stroke-miterlimit: 4; fill: rgb(255,255,255); fill-rule: nonzero; opacity: 1;" vector-effect="non-scaling-stroke"  transform=" translate(-100.32, -99.7)" d="M 135.832 140.848 L 64.93199999999999 140.848 C 62.03199999999999 140.848 59.33199999999999 139.24800000000002 57.53199999999999 136.348 C 56.13199999999999 134.048 56.13199999999999 130.64800000000002 57.53199999999999 127.74800000000002 L 61.53199999999999 119.54800000000002 C 64.332 113.94800000000002 71.23199999999999 110.44800000000002 76.43199999999999 110.04800000000002 C 78.13199999999999 109.94800000000002 81.53199999999998 109.24800000000002 84.93199999999999 108.44800000000002 C 87.43199999999999 107.84800000000003 88.832 107.44800000000002 89.63199999999999 107.14800000000002 C 89.43199999999999 106.44800000000002 89.032 105.64800000000002 88.532 104.94800000000002 C 82.532 100.24800000000002 78.932 92.34800000000003 78.932 83.84800000000001 C 78.932 69.84800000000001 88.532 58.548000000000016 100.432 58.548000000000016 C 112.33200000000001 58.548000000000016 121.932 69.94800000000002 121.932 83.84800000000001 C 121.932 92.34800000000001 118.33200000000001 100.24800000000002 112.33200000000001 104.94800000000001 C 111.83200000000001 105.64800000000001 111.432 106.34800000000001 111.23200000000001 107.048 C 112.03200000000001 107.348 113.43200000000002 107.748 115.83200000000001 108.348 C 118.83200000000001 109.048 122.432 109.648 124.23200000000001 109.848 C 129.532 110.348 136.33200000000002 113.648 139.132 119.248 L 143.032 127.14800000000001 C 144.532 130.14800000000002 144.532 133.948 143.032 136.24800000000002 C 141.432 139.148 138.632 140.848 135.832 140.848 z M 100.432 62.648 C 90.732 62.648 82.932 72.248 82.932 83.94800000000001 C 82.932 91.34800000000001 86.032 98.048 91.132 102.048 C 91.232 102.148 91.432 102.248 91.53200000000001 102.44800000000001 C 92.93200000000002 104.248 93.73200000000001 106.248 93.73200000000001 108.34800000000001 C 93.73200000000001 108.94800000000001 93.53200000000001 109.54800000000002 93.03200000000001 109.94800000000001 C 92.632 110.248 91.632 111.14800000000001 85.83200000000001 112.548 C 83.132 113.148 79.03200000000001 113.94800000000001 76.73200000000001 114.148 C 72.63200000000002 114.548 67.13200000000002 117.348 65.13200000000002 121.448 L 61.23200000000002 129.648 C 60.43200000000002 131.34799999999998 60.33200000000002 133.34799999999998 61.03200000000002 134.448 C 61.832000000000015 135.74800000000002 63.332000000000015 137.048 65.03200000000001 137.048 L 135.93200000000002 137.048 C 137.632 137.048 139.132 135.748 139.93200000000002 134.448 C 140.532 133.448 140.632 131.048 139.73200000000003 129.24800000000002 L 135.83200000000002 121.34800000000001 C 133.83200000000002 117.34800000000001 128.33200000000002 114.54800000000002 124.23200000000003 114.14800000000001 C 122.23200000000003 113.94800000000001 118.43200000000003 113.34800000000001 115.23200000000003 112.54800000000002 C 109.43200000000003 111.14800000000001 108.43200000000003 110.24800000000002 108.03200000000002 110.04800000000002 C 107.63200000000002 109.64800000000001 107.33200000000002 109.04800000000002 107.33200000000002 108.44800000000002 C 107.33200000000002 106.34800000000003 108.13200000000002 104.34800000000003 109.53200000000002 102.54800000000002 C 109.63200000000002 102.44800000000002 109.73200000000003 102.24800000000002 109.93200000000003 102.14800000000001 C 115.03200000000002 98.248 118.13200000000003 91.44800000000001 118.13200000000003 84.14800000000001 C 117.932 72.248 110.132 62.648 100.432 62.648 z" stroke-linecap="round" />
</g>
</svg>