<?xml version="1.0" encoding="UTF-8" standalone="no" ?>
<!DOCTYPE svg PUBLIC "-//W3C//DTD SVG 1.1//EN" "http://www.w3.org/Graphics/SVG/1.1/DTD/svg11.dtd">
<svg xmlns="http://www.w3.org/2000/svg" xmlns:xlink="http://www.w3.org/1999/xlink" version="1.1" width="1080" height="1080" viewBox="0 0 1080 1080" xml:space="preserve">
<desc>Created with Fabric.js 5.2.4</desc>
<defs>
</defs>
<rect x="0" y="0" width="100%" height="100%" fill="transparent"></rect>
<g transform="matrix(1 0 0 1 540 540)" id="2e2539ed-da84-4b4e-b12b-266e4cc47580"  >
<rect style="stroke: none; stroke-width: 1; stroke-dasharray: none; stroke-linecap: butt; stroke-dashoffset: 0; stroke-linejoin: miter; stroke-miterlimit: 4; fill: rgb(255,255,255); fill-rule: nonzero; opacity: 1; visibility: hidden;" vector-effect="non-scaling-stroke"  x="-540" y="-540" rx="0" ry="0" width="1080" height="1080" />
</g>
<g transform="matrix(1 0 0 1 540 540)" id="14965c9c-9060-47d9-a159-5495196618e9"  >
</g>
<g transform="matrix(11.4 0 0 11.4 540 540)"  >
<g style="" vector-effect="non-scaling-stroke"   >
		<g transform="matrix(1 0 0 1 18.04 -8.4)"  >
<path style="stroke: none; stroke-width: 1; stroke-dasharray: none; stroke-linecap: butt; stroke-dashoffset: 0; stroke-linejoin: miter; stroke-miterlimit: 4; fill: rgb(0,0,0); fill-rule: nonzero; opacity: 1;" vector-effect="non-scaling-stroke"  transform=" translate(-68.04, -41.6)" d="M 64.976562 32.132812 C 64.398438 31.664062 63.550781 31.746094 63.074219 32.316406 C 62.59375 32.886719 62.660156 33.734375 63.21875 34.226562 C 67.890625 38.132812 70.59375 43.910156 70.589844 50 C 70.589844 50.753906 71.203125 51.367188 71.957031 51.367188 C 72.714844 51.367188 73.324219 50.753906 73.324219 50 C 73.328125 43.101562 70.269531 36.554688 64.976562 32.132812 Z M 64.976562 32.132812" stroke-linecap="round" />
</g>
		<g transform="matrix(1 0 0 1 0 0)"  >
<path style="stroke: none; stroke-width: 1; stroke-dasharray: none; stroke-linecap: butt; stroke-dashoffset: 0; stroke-linejoin: miter; stroke-miterlimit: 4; fill: rgb(0,0,0); fill-rule: nonzero; opacity: 1;" vector-effect="non-scaling-stroke"  transform=" translate(-50, -50)" d="M 50 31.363281 C 39.707031 31.363281 31.363281 39.707031 31.363281 50 C 31.363281 60.292969 39.707031 68.636719 50 68.636719 C 60.292969 68.636719 68.636719 60.292969 68.636719 50 C 68.625 39.710938 60.289062 31.375 50 31.363281 Z M 50 65.90625 C 41.214844 65.90625 34.097656 58.785156 34.097656 50 C 34.097656 41.21875 41.214844 34.097656 50 34.097656 C 58.78125 34.097656 65.902344 41.214844 65.902344 50 C 65.894531 58.78125 58.78125 65.894531 50 65.902344 Z M 50 65.90625" stroke-linecap="round" />
</g>
		<g transform="matrix(1 0 0 1 0 0)"  >
<path style="stroke: none; stroke-width: 1; stroke-dasharray: none; stroke-linecap: butt; stroke-dashoffset: 0; stroke-linejoin: miter; stroke-miterlimit: 4; fill: rgb(0,0,0); fill-rule: nonzero; opacity: 1;" vector-effect="non-scaling-stroke"  transform=" translate(-50, -50)" d="M 95.742188 42.875 C 95.636719 42.210938 95.066406 41.71875 94.390625 41.71875 L 81.390625 41.71875 C 80.648438 38.890625 79.523438 36.179688 78.046875 33.65625 L 87.238281 24.464844 C 87.714844 23.988281 87.773438 23.238281 87.375 22.691406 C 84.558594 18.835938 81.160156 15.441406 77.304688 12.621094 C 76.761719 12.226562 76.007812 12.285156 75.53125 12.761719 L 66.34375 21.953125 C 63.820312 20.476562 61.109375 19.351562 58.28125 18.609375 L 58.28125 5.609375 C 58.28125 4.933594 57.789062 4.363281 57.125 4.257812 C 52.402344 3.53125 47.597656 3.53125 42.875 4.257812 C 42.210938 4.363281 41.71875 4.933594 41.71875 5.609375 L 41.71875 18.609375 C 38.890625 19.351562 36.179688 20.476562 33.65625 21.953125 L 24.464844 12.761719 C 23.988281 12.285156 23.238281 12.226562 22.691406 12.621094 C 18.835938 15.441406 15.4375 18.835938 12.621094 22.695312 C 12.226562 23.238281 12.28125 23.992188 12.761719 24.46875 L 21.953125 33.65625 C 20.476562 36.179688 19.351562 38.890625 18.609375 41.71875 L 5.609375 41.71875 C 4.933594 41.71875 4.363281 42.210938 4.257812 42.875 C 3.527344 47.597656 3.527344 52.402344 4.257812 57.125 C 4.363281 57.789062 4.933594 58.28125 5.609375 58.28125 L 18.609375 58.28125 C 19.351562 61.109375 20.476562 63.820312 21.953125 66.34375 L 12.761719 75.535156 C 12.28125 76.011719 12.226562 76.761719 12.621094 77.308594 C 15.441406 81.164062 18.835938 84.5625 22.695312 87.378906 C 23.238281 87.777344 23.992188 87.71875 24.46875 87.242188 L 33.65625 78.046875 C 36.179688 79.523438 38.890625 80.648438 41.71875 81.390625 L 41.71875 94.390625 C 41.71875 95.066406 42.210938 95.636719 42.875 95.742188 C 47.597656 96.472656 52.402344 96.472656 57.121094 95.742188 C 57.789062 95.640625 58.28125 95.066406 58.28125 94.390625 L 58.28125 81.390625 C 61.109375 80.648438 63.820312 79.523438 66.34375 78.046875 L 75.535156 87.238281 C 76.011719 87.714844 76.761719 87.769531 77.308594 87.375 C 81.164062 84.558594 84.5625 81.160156 87.378906 77.304688 C 87.777344 76.757812 87.71875 76.007812 87.242188 75.53125 L 78.046875 66.34375 C 79.523438 63.820312 80.648438 61.109375 81.390625 58.28125 L 94.390625 58.28125 C 95.066406 58.28125 95.636719 57.789062 95.742188 57.125 C 96.472656 52.402344 96.472656 47.597656 95.742188 42.878906 Z M 93.203125 55.546875 L 80.320312 55.546875 C 79.679688 55.546875 79.128906 55.988281 78.984375 56.609375 C 78.246094 59.875 76.953125 62.992188 75.167969 65.820312 C 74.828125 66.363281 74.90625 67.066406 75.359375 67.519531 L 84.46875 76.628906 C 82.199219 79.566406 79.566406 82.199219 76.628906 84.46875 L 67.519531 75.359375 C 67.066406 74.90625 66.363281 74.828125 65.820312 75.167969 C 62.992188 76.953125 59.875 78.246094 56.609375 78.984375 C 55.988281 79.128906 55.546875 79.679688 55.546875 80.320312 L 55.546875 93.203125 C 51.863281 93.667969 48.136719 93.667969 44.453125 93.203125 L 44.453125 80.320312 C 44.453125 79.679688 44.011719 79.128906 43.390625 78.984375 C 40.125 78.246094 37.007812 76.953125 34.179688 75.167969 C 33.636719 74.828125 32.933594 74.90625 32.480469 75.359375 L 23.371094 84.46875 C 20.433594 82.199219 17.800781 79.566406 15.53125 76.628906 L 24.640625 67.519531 C 25.09375 67.066406 25.171875 66.363281 24.832031 65.820312 C 23.046875 62.992188 21.753906 59.875 21.015625 56.609375 C 20.875 55.988281 20.320312 55.546875 19.679688 55.546875 L 6.796875 55.546875 C 6.328125 51.863281 6.328125 48.136719 6.796875 44.453125 L 19.679688 44.453125 C 20.320312 44.453125 20.875 44.011719 21.015625 43.390625 C 21.753906 40.125 23.046875 37.007812 24.832031 34.179688 C 25.171875 33.636719 25.09375 32.933594 24.644531 32.480469 L 15.535156 23.371094 C 17.800781 20.4375 20.4375 17.800781 23.371094 15.53125 L 32.480469 24.640625 C 32.933594 25.09375 33.636719 25.171875 34.179688 24.832031 C 37.007812 23.046875 40.125 21.753906 43.390625 21.015625 C 44.011719 20.875 44.453125 20.320312 44.453125 19.679688 L 44.453125 6.796875 C 48.136719 6.332031 51.863281 6.332031 55.546875 6.796875 L 55.546875 19.679688 C 55.546875 20.320312 55.988281 20.875 56.609375 21.015625 C 59.875 21.753906 62.992188 23.046875 65.820312 24.832031 C 66.363281 25.171875 67.066406 25.09375 67.519531 24.644531 L 76.628906 15.535156 C 79.566406 17.800781 82.199219 20.4375 84.46875 23.375 L 75.359375 32.484375 C 74.90625 32.933594 74.828125 33.636719 75.167969 34.179688 C 76.953125 37.011719 78.246094 40.125 78.984375 43.390625 C 79.128906 44.011719 79.679688 44.453125 80.320312 44.453125 L 93.203125 44.453125 C 93.671875 48.136719 93.671875 51.863281 93.203125 55.546875 Z M 93.203125 55.546875" stroke-linecap="round" />
</g>
</g>
</g>
</svg>