<?xml version="1.0" encoding="UTF-8"?>
<svg xmlns="http://www.w3.org/2000/svg" xmlns:xlink="http://www.w3.org/1999/xlink" width="100px" height="100px" viewBox="0 0 100 100" version="1.1">
<g id="surface1">
<path style=" stroke:none;fill-rule:nonzero;fill:rgb(15.686275%,15.686275%,15.686275%);fill-opacity:1;" d="M 67.914062 70.425781 L 32.464844 70.425781 C 31.015625 70.425781 29.664062 69.625 28.765625 68.175781 C 28.066406 67.023438 28.066406 65.324219 28.765625 63.875 L 30.765625 59.773438 C 32.164062 56.972656 35.617188 55.222656 38.214844 55.023438 C 39.066406 54.972656 40.765625 54.625 42.464844 54.222656 C 43.714844 53.925781 44.414062 53.722656 44.816406 53.574219 C 44.714844 53.222656 44.515625 52.824219 44.265625 52.472656 C 41.265625 50.125 39.464844 46.175781 39.464844 41.925781 C 39.464844 34.925781 44.265625 29.273438 50.214844 29.273438 C 56.164062 29.273438 60.964844 34.972656 60.964844 41.925781 C 60.964844 46.175781 59.164062 50.125 56.164062 52.472656 C 55.914062 52.824219 55.714844 53.175781 55.617188 53.523438 C 56.015625 53.675781 56.714844 53.875 57.914062 54.175781 C 59.414062 54.523438 61.214844 54.824219 62.117188 54.925781 C 64.765625 55.175781 68.164062 56.824219 69.566406 59.625 L 71.515625 63.574219 C 72.265625 65.074219 72.265625 66.972656 71.515625 68.125 C 70.714844 69.574219 69.316406 70.425781 67.914062 70.425781 Z M 50.214844 31.324219 C 45.367188 31.324219 41.464844 36.125 41.464844 41.972656 C 41.464844 45.675781 43.015625 49.023438 45.566406 51.023438 C 45.617188 51.074219 45.714844 51.125 45.765625 51.222656 C 46.464844 52.125 46.867188 53.125 46.867188 54.175781 C 46.867188 54.472656 46.765625 54.773438 46.515625 54.972656 C 46.316406 55.125 45.816406 55.574219 42.914062 56.273438 C 41.566406 56.574219 39.515625 56.972656 38.367188 57.074219 C 36.316406 57.273438 33.566406 58.675781 32.566406 60.722656 L 30.617188 64.824219 C 30.214844 65.675781 30.164062 66.675781 30.515625 67.222656 C 30.914062 67.875 31.664062 68.523438 32.515625 68.523438 L 67.964844 68.523438 C 68.816406 68.523438 69.566406 67.875 69.964844 67.222656 C 70.265625 66.722656 70.316406 65.523438 69.867188 64.625 L 67.914062 60.675781 C 66.914062 58.675781 64.164062 57.273438 62.117188 57.074219 C 61.117188 56.972656 59.214844 56.675781 57.617188 56.273438 C 54.714844 55.574219 54.214844 55.125 54.015625 55.023438 C 53.816406 54.824219 53.664062 54.523438 53.664062 54.222656 C 53.664062 53.175781 54.066406 52.175781 54.765625 51.273438 C 54.816406 51.222656 54.867188 51.125 54.964844 51.074219 C 57.515625 49.125 59.066406 45.722656 59.066406 42.074219 C 58.964844 36.125 55.066406 31.324219 50.214844 31.324219 Z M 50.214844 31.324219 "/>
</g>
</svg>
